<svg data-v-55422a21="" viewBox="0 0 72 30" fill="none" xmlns="http://www.w3.org/2000/svg" class="fx-w-64 md:fx-w-[5rem]"><path fill-rule="evenodd" clip-rule="evenodd" d="M15.04 4.086c-1.233.032-4.718.193-4.718 4.909v.973h5.972v3.793h-5.972v15.646H6.21V13.76H0V9.968h6.209v-.973c0-4.239 2.307-8.828 8.78-8.994L15.042 0h.054c6.93.179 8.78 5.005 8.78 7.828h-4.114c0-.846-.341-3.609-4.722-3.742zm36.134 25.32h-4.552V9.955h4.552v19.453zM21.286 17.55c.373-3.075 2.425-4.742 5.261-4.742 2.91 0 4.776 2.075 5.075 4.742H21.286zm5.298-8.262c-5.97 0-10 4.409-10 10.338C16.584 25.7 20.54 30 26.66 30c4.739 0 7.986-2.594 9.18-6.151h-4.59c-.821 1.482-2.276 2.408-4.478 2.408-3.172 0-5.336-2.297-5.634-5.483l15 .036.006-.128c.01-.198.032-.594.032-1.095-.038-5.668-3.322-10.3-9.59-10.3zm16.381 20.12h-4.552V2.914h4.553v26.493zm5.88-26.74a2.701 2.701 0 00-2.71 2.692 2.701 2.701 0 002.71 2.692 2.701 2.701 0 002.71-2.692 2.701 2.701 0 00-2.71-2.692zM68.049 14.68c-1.152 1.689-2.303 3.375-3.176 4.685 1.129 1.63 2.648 3.754 4.111 5.802 1.1 1.537 2.168 3.032 3.016 4.24h-5.336l-.004-.006c-1.38-2.184-2.759-4.369-4.362-6.85-.694 1.035-1.462 2.214-2.204 3.354-.853 1.31-1.673 2.57-2.311 3.502h-5.187c.81-1.071 3.471-4.842 5.628-7.898l1.462-2.07-6.38-9.485h5.223c.394.597 1.041 1.64 1.807 2.874a489.05 489.05 0 002 3.202c.85-1.374 1.52-2.422 2.201-3.489.513-.803 1.033-1.617 1.642-2.587h5.074c-.88 1.32-2.043 3.024-3.204 4.726z" fill="#FFFFFF"></path></svg>